<?xml version="1.0" encoding="UTF-8" standalone="no"?>
<!DOCTYPE svg PUBLIC "-//W3C//DTD SVG 1.1//EN"
 "http://www.w3.org/Graphics/SVG/1.1/DTD/svg11.dtd">
<!-- Generated by graphviz version 2.40.1 (20161225.0304)
 -->
<!-- Title: dependencies Pages: 1 -->
<svg width="800pt" height="284pt"
 viewBox="0.00 0.00 800.00 284.00" xmlns="http://www.w3.org/2000/svg" xmlns:xlink="http://www.w3.org/1999/xlink">
<g id="graph0" class="graph" transform="scale(1 1) rotate(0) translate(4 280)">
<title>dependencies</title>
<polygon fill="#ffffff" stroke="transparent" points="-4,4 -4,-280 796,-280 796,4 -4,4"/>
<text text-anchor="start" x="375.0091" y="-42.4" font-family="sans-serif" font-weight="bold" font-size="14.00" fill="#000000">Legend</text>
<polygon fill="#ffffb3" stroke="transparent" points="162,-10 162,-30 182,-30 182,-10 162,-10"/>
<text text-anchor="start" x="185.629" y="-15.4" font-family="sans-serif" font-size="14.00" fill="#000000"> &#160;Declarations</text>
<polygon fill="#8dd3c7" stroke="transparent" points="275,-10 275,-30 295,-30 295,-10 275,-10"/>
<text text-anchor="start" x="298.7251" y="-15.4" font-family="sans-serif" font-size="14.00" fill="#000000"> &#160;Module</text>
<polygon fill="#80b1d3" stroke="transparent" points="361,-10 361,-30 381,-30 381,-10 361,-10"/>
<text text-anchor="start" x="384.7812" y="-15.4" font-family="sans-serif" font-size="14.00" fill="#000000"> &#160;Bootstrap</text>
<polygon fill="#fdb462" stroke="transparent" points="458,-10 458,-30 478,-30 478,-10 458,-10"/>
<text text-anchor="start" x="481.6732" y="-15.4" font-family="sans-serif" font-size="14.00" fill="#000000"> &#160;Providers</text>
<polygon fill="#fb8072" stroke="transparent" points="554,-10 554,-30 574,-30 574,-10 554,-10"/>
<text text-anchor="start" x="577.7258" y="-15.4" font-family="sans-serif" font-size="14.00" fill="#000000"> &#160;Exports</text>
<g id="clust1" class="cluster">
<title>cluster_DataEntryComponentsModule</title>
<polygon fill="none" stroke="#000000" stroke-dasharray="1,5" points="8,-70 8,-268 784,-268 784,-70 8,-70"/>
</g>
<g id="clust2" class="cluster">
<title>cluster_DataEntryComponentsModule_declarations</title>
<polygon fill="none" stroke="#000000" points="22,-78 22,-130 772,-130 772,-78 22,-78"/>
</g>
<g id="clust7" class="cluster">
<title>cluster_DataEntryComponentsModule_exports</title>
<polygon fill="none" stroke="#000000" points="16,-208 16,-260 776,-260 776,-208 16,-208"/>
</g>
<!-- AggregateFormContainerComponent -->
<g id="node1" class="node">
<title>AggregateFormContainerComponent</title>
<polygon fill="#ffffb3" stroke="#000000" points="763.6755,-122 538.3245,-122 538.3245,-86 763.6755,-86 763.6755,-122"/>
<text text-anchor="middle" x="651" y="-99.8" font-family="Times,serif" font-size="14.00" fill="#000000">AggregateFormContainerComponent</text>
</g>
<!-- DataEntryComponentsModule -->
<g id="node4" class="node">
<title>DataEntryComponentsModule</title>
<polygon fill="#8dd3c7" stroke="#000000" points="489.8571,-187 486.8571,-191 465.8571,-191 462.8571,-187 302.1429,-187 302.1429,-151 489.8571,-151 489.8571,-187"/>
<text text-anchor="middle" x="396" y="-164.8" font-family="Times,serif" font-size="14.00" fill="#000000">DataEntryComponentsModule</text>
</g>
<!-- AggregateFormContainerComponent&#45;&gt;DataEntryComponentsModule -->
<g id="edge1" class="edge">
<title>AggregateFormContainerComponent&#45;&gt;DataEntryComponentsModule</title>
<path fill="none" stroke="#000000" d="M688.9459,-122.0225C688.9459,-139.3734 688.9459,-163 688.9459,-163 688.9459,-163 499.8987,-163 499.8987,-163"/>
<polygon fill="#000000" stroke="#000000" points="499.8987,-159.5001 489.8987,-163 499.8986,-166.5001 499.8987,-159.5001"/>
</g>
<!-- AggregateParameterSelectionComponent -->
<g id="node2" class="node">
<title>AggregateParameterSelectionComponent</title>
<polygon fill="#ffffb3" stroke="#000000" points="520.4761,-122 271.5239,-122 271.5239,-86 520.4761,-86 520.4761,-122"/>
<text text-anchor="middle" x="396" y="-99.8" font-family="Times,serif" font-size="14.00" fill="#000000">AggregateParameterSelectionComponent</text>
</g>
<!-- AggregateParameterSelectionComponent&#45;&gt;DataEntryComponentsModule -->
<g id="edge2" class="edge">
<title>AggregateParameterSelectionComponent&#45;&gt;DataEntryComponentsModule</title>
<path fill="none" stroke="#000000" d="M396,-122.1061C396,-122.1061 396,-140.991 396,-140.991"/>
<polygon fill="#000000" stroke="#000000" points="392.5001,-140.9909 396,-150.991 399.5001,-140.991 392.5001,-140.9909"/>
</g>
<!-- DataEntryFormSummaryComponent -->
<g id="node3" class="node">
<title>DataEntryFormSummaryComponent</title>
<polygon fill="#ffffb3" stroke="#000000" points="253.6357,-122 30.3643,-122 30.3643,-86 253.6357,-86 253.6357,-122"/>
<text text-anchor="middle" x="142" y="-99.8" font-family="Times,serif" font-size="14.00" fill="#000000">DataEntryFormSummaryComponent</text>
</g>
<!-- DataEntryFormSummaryComponent&#45;&gt;DataEntryComponentsModule -->
<g id="edge3" class="edge">
<title>DataEntryFormSummaryComponent&#45;&gt;DataEntryComponentsModule</title>
<path fill="none" stroke="#000000" d="M177.7726,-122.0225C177.7726,-139.3734 177.7726,-163 177.7726,-163 177.7726,-163 291.8685,-163 291.8685,-163"/>
<polygon fill="#000000" stroke="#000000" points="291.8686,-166.5001 301.8685,-163 291.8685,-159.5001 291.8686,-166.5001"/>
</g>
<!-- AggregateFormContainerComponent  -->
<g id="node5" class="node">
<title>AggregateFormContainerComponent </title>
<polygon fill="#fb8072" stroke="#000000" points="768.1756,-252 539.8244,-252 539.8244,-216 768.1756,-216 768.1756,-252"/>
<text text-anchor="middle" x="654" y="-229.8" font-family="Times,serif" font-size="14.00" fill="#000000">AggregateFormContainerComponent </text>
</g>
<!-- DataEntryComponentsModule&#45;&gt;AggregateFormContainerComponent  -->
<g id="edge4" class="edge">
<title>DataEntryComponentsModule&#45;&gt;AggregateFormContainerComponent </title>
<path fill="none" stroke="#000000" stroke-dasharray="5,2" d="M490.1645,-175C549.2484,-175 614.3041,-175 614.3041,-175 614.3041,-175 614.3041,-205.9775 614.3041,-205.9775"/>
<polygon fill="#000000" stroke="#000000" points="610.8042,-205.9774 614.3041,-215.9775 617.8042,-205.9775 610.8042,-205.9774"/>
</g>
<!-- AggregateParameterSelectionComponent  -->
<g id="node6" class="node">
<title>AggregateParameterSelectionComponent </title>
<polygon fill="#fb8072" stroke="#000000" points="521.9756,-252 270.0244,-252 270.0244,-216 521.9756,-216 521.9756,-252"/>
<text text-anchor="middle" x="396" y="-229.8" font-family="Times,serif" font-size="14.00" fill="#000000">AggregateParameterSelectionComponent </text>
</g>
<!-- DataEntryComponentsModule&#45;&gt;AggregateParameterSelectionComponent  -->
<g id="edge5" class="edge">
<title>DataEntryComponentsModule&#45;&gt;AggregateParameterSelectionComponent </title>
<path fill="none" stroke="#000000" stroke-dasharray="5,2" d="M396,-187.1061C396,-187.1061 396,-205.991 396,-205.991"/>
<polygon fill="#000000" stroke="#000000" points="392.5001,-205.9909 396,-215.991 399.5001,-205.991 392.5001,-205.9909"/>
</g>
<!-- DataEntryFormSummaryComponent  -->
<g id="node7" class="node">
<title>DataEntryFormSummaryComponent </title>
<polygon fill="#fb8072" stroke="#000000" points="251.6354,-252 24.3646,-252 24.3646,-216 251.6354,-216 251.6354,-252"/>
<text text-anchor="middle" x="138" y="-229.8" font-family="Times,serif" font-size="14.00" fill="#000000">DataEntryFormSummaryComponent </text>
</g>
<!-- DataEntryComponentsModule&#45;&gt;DataEntryFormSummaryComponent  -->
<g id="edge6" class="edge">
<title>DataEntryComponentsModule&#45;&gt;DataEntryFormSummaryComponent </title>
<path fill="none" stroke="#000000" stroke-dasharray="5,2" d="M301.9948,-175C216.6273,-175 103.9774,-175 103.9774,-175 103.9774,-175 103.9774,-205.9775 103.9774,-205.9775"/>
<polygon fill="#000000" stroke="#000000" points="100.4775,-205.9774 103.9774,-215.9775 107.4775,-205.9775 100.4775,-205.9774"/>
</g>
</g>
</svg>
