<?xml version="1.0" encoding="UTF-8" standalone="no"?>
<!DOCTYPE svg PUBLIC "-//W3C//DTD SVG 1.1//EN"
 "http://www.w3.org/Graphics/SVG/1.1/DTD/svg11.dtd">
<!-- Generated by graphviz version 2.40.1 (20161225.0304)
 -->
<!-- Title: dependencies Pages: 1 -->
<svg width="504pt" height="211pt"
 viewBox="0.00 0.00 504.00 211.00" xmlns="http://www.w3.org/2000/svg" xmlns:xlink="http://www.w3.org/1999/xlink">
<g id="graph0" class="graph" transform="scale(1 1) rotate(0) translate(4 207)">
<title>dependencies</title>
<polygon fill="#ffffff" stroke="transparent" points="-4,4 -4,-207 500,-207 500,4 -4,4"/>
<text text-anchor="start" x="227.0091" y="-42.4" font-family="sans-serif" font-weight="bold" font-size="14.00" fill="#000000">Legend</text>
<polygon fill="#ffffb3" stroke="transparent" points="14,-10 14,-30 34,-30 34,-10 14,-10"/>
<text text-anchor="start" x="37.629" y="-15.4" font-family="sans-serif" font-size="14.00" fill="#000000"> &#160;Declarations</text>
<polygon fill="#8dd3c7" stroke="transparent" points="127,-10 127,-30 147,-30 147,-10 127,-10"/>
<text text-anchor="start" x="150.7251" y="-15.4" font-family="sans-serif" font-size="14.00" fill="#000000"> &#160;Module</text>
<polygon fill="#80b1d3" stroke="transparent" points="213,-10 213,-30 233,-30 233,-10 213,-10"/>
<text text-anchor="start" x="236.7812" y="-15.4" font-family="sans-serif" font-size="14.00" fill="#000000"> &#160;Bootstrap</text>
<polygon fill="#fdb462" stroke="transparent" points="310,-10 310,-30 330,-30 330,-10 310,-10"/>
<text text-anchor="start" x="333.6732" y="-15.4" font-family="sans-serif" font-size="14.00" fill="#000000"> &#160;Providers</text>
<polygon fill="#fb8072" stroke="transparent" points="406,-10 406,-30 426,-30 426,-10 406,-10"/>
<text text-anchor="start" x="429.7258" y="-15.4" font-family="sans-serif" font-size="14.00" fill="#000000"> &#160;Exports</text>
<g id="clust1" class="cluster">
<title>cluster_LocalInstanceSelectionPageModule</title>
<polygon fill="none" stroke="#000000" stroke-dasharray="1,5" points="131,-70 131,-195 365,-195 365,-70 131,-70"/>
</g>
<g id="clust2" class="cluster">
<title>cluster_LocalInstanceSelectionPageModule_declarations</title>
<polygon fill="none" stroke="#000000" points="153,-78 153,-130 343,-130 343,-78 153,-78"/>
</g>
<!-- LocalInstanceSelectionPage -->
<g id="node1" class="node">
<title>LocalInstanceSelectionPage</title>
<polygon fill="#ffffb3" stroke="#000000" points="334.8221,-122 161.1779,-122 161.1779,-86 334.8221,-86 334.8221,-122"/>
<text text-anchor="middle" x="248" y="-99.8" font-family="Times,serif" font-size="14.00" fill="#000000">LocalInstanceSelectionPage</text>
</g>
<!-- LocalInstanceSelectionPageModule -->
<g id="node2" class="node">
<title>LocalInstanceSelectionPageModule</title>
<polygon fill="#8dd3c7" stroke="#000000" points="356.8721,-187 353.8721,-191 332.8721,-191 329.8721,-187 139.1279,-187 139.1279,-151 356.8721,-151 356.8721,-187"/>
<text text-anchor="middle" x="248" y="-164.8" font-family="Times,serif" font-size="14.00" fill="#000000">LocalInstanceSelectionPageModule</text>
</g>
<!-- LocalInstanceSelectionPage&#45;&gt;LocalInstanceSelectionPageModule -->
<g id="edge1" class="edge">
<title>LocalInstanceSelectionPage&#45;&gt;LocalInstanceSelectionPageModule</title>
<path fill="none" stroke="#000000" d="M248,-122.1061C248,-122.1061 248,-140.991 248,-140.991"/>
<polygon fill="#000000" stroke="#000000" points="244.5001,-140.9909 248,-150.991 251.5001,-140.991 244.5001,-140.9909"/>
</g>
</g>
</svg>
