<?xml version="1.0" encoding="UTF-8" standalone="no"?>
<!DOCTYPE svg PUBLIC "-//W3C//DTD SVG 1.1//EN"
 "http://www.w3.org/Graphics/SVG/1.1/DTD/svg11.dtd">
<!-- Generated by graphviz version 2.40.1 (20161225.0304)
 -->
<!-- Title: dependencies Pages: 1 -->
<svg width="600pt" height="284pt"
 viewBox="0.00 0.00 600.00 284.00" xmlns="http://www.w3.org/2000/svg" xmlns:xlink="http://www.w3.org/1999/xlink">
<g id="graph0" class="graph" transform="scale(1 1) rotate(0) translate(4 280)">
<title>dependencies</title>
<polygon fill="#ffffff" stroke="transparent" points="-4,4 -4,-280 596,-280 596,4 -4,4"/>
<text text-anchor="start" x="275.0091" y="-42.4" font-family="sans-serif" font-weight="bold" font-size="14.00" fill="#000000">Legend</text>
<polygon fill="#ffffb3" stroke="transparent" points="62,-10 62,-30 82,-30 82,-10 62,-10"/>
<text text-anchor="start" x="85.629" y="-15.4" font-family="sans-serif" font-size="14.00" fill="#000000"> &#160;Declarations</text>
<polygon fill="#8dd3c7" stroke="transparent" points="175,-10 175,-30 195,-30 195,-10 175,-10"/>
<text text-anchor="start" x="198.7251" y="-15.4" font-family="sans-serif" font-size="14.00" fill="#000000"> &#160;Module</text>
<polygon fill="#80b1d3" stroke="transparent" points="261,-10 261,-30 281,-30 281,-10 261,-10"/>
<text text-anchor="start" x="284.7812" y="-15.4" font-family="sans-serif" font-size="14.00" fill="#000000"> &#160;Bootstrap</text>
<polygon fill="#fdb462" stroke="transparent" points="358,-10 358,-30 378,-30 378,-10 358,-10"/>
<text text-anchor="start" x="381.6732" y="-15.4" font-family="sans-serif" font-size="14.00" fill="#000000"> &#160;Providers</text>
<polygon fill="#fb8072" stroke="transparent" points="454,-10 454,-30 474,-30 474,-10 454,-10"/>
<text text-anchor="start" x="477.7258" y="-15.4" font-family="sans-serif" font-size="14.00" fill="#000000"> &#160;Exports</text>
<g id="clust1" class="cluster">
<title>cluster_LoginComponentsModule</title>
<polygon fill="none" stroke="#000000" stroke-dasharray="1,5" points="8,-70 8,-268 584,-268 584,-70 8,-70"/>
</g>
<g id="clust2" class="cluster">
<title>cluster_LoginComponentsModule_declarations</title>
<polygon fill="none" stroke="#000000" points="21,-78 21,-130 572,-130 572,-78 21,-78"/>
</g>
<g id="clust7" class="cluster">
<title>cluster_LoginComponentsModule_exports</title>
<polygon fill="none" stroke="#000000" points="16,-208 16,-260 576,-260 576,-208 16,-208"/>
</g>
<!-- LoginFormComponent -->
<g id="node1" class="node">
<title>LoginFormComponent</title>
<polygon fill="#ffffb3" stroke="#000000" points="563.6094,-122 418.3906,-122 418.3906,-86 563.6094,-86 563.6094,-122"/>
<text text-anchor="middle" x="491" y="-99.8" font-family="Times,serif" font-size="14.00" fill="#000000">LoginFormComponent</text>
</g>
<!-- LoginComponentsModule -->
<g id="node4" class="node">
<title>LoginComponentsModule</title>
<polygon fill="#8dd3c7" stroke="#000000" points="384.7702,-187 381.7702,-191 360.7702,-191 357.7702,-187 221.2298,-187 221.2298,-151 384.7702,-151 384.7702,-187"/>
<text text-anchor="middle" x="303" y="-164.8" font-family="Times,serif" font-size="14.00" fill="#000000">LoginComponentsModule</text>
</g>
<!-- LoginFormComponent&#45;&gt;LoginComponentsModule -->
<g id="edge1" class="edge">
<title>LoginFormComponent&#45;&gt;LoginComponentsModule</title>
<path fill="none" stroke="#000000" d="M515.6016,-122.0225C515.6016,-139.3734 515.6016,-163 515.6016,-163 515.6016,-163 394.8932,-163 394.8932,-163"/>
<polygon fill="#000000" stroke="#000000" points="394.8932,-159.5001 384.8932,-163 394.8932,-166.5001 394.8932,-159.5001"/>
</g>
<!-- LoginMetadataSyncComponent -->
<g id="node2" class="node">
<title>LoginMetadataSyncComponent</title>
<polygon fill="#ffffb3" stroke="#000000" points="400.3571,-122 205.6429,-122 205.6429,-86 400.3571,-86 400.3571,-122"/>
<text text-anchor="middle" x="303" y="-99.8" font-family="Times,serif" font-size="14.00" fill="#000000">LoginMetadataSyncComponent</text>
</g>
<!-- LoginMetadataSyncComponent&#45;&gt;LoginComponentsModule -->
<g id="edge2" class="edge">
<title>LoginMetadataSyncComponent&#45;&gt;LoginComponentsModule</title>
<path fill="none" stroke="#000000" d="M303,-122.1061C303,-122.1061 303,-140.991 303,-140.991"/>
<polygon fill="#000000" stroke="#000000" points="299.5001,-140.9909 303,-150.991 306.5001,-140.991 299.5001,-140.9909"/>
</g>
<!-- LoginSpinnerComponent -->
<g id="node3" class="node">
<title>LoginSpinnerComponent</title>
<polygon fill="#ffffb3" stroke="#000000" points="187.3243,-122 28.6757,-122 28.6757,-86 187.3243,-86 187.3243,-122"/>
<text text-anchor="middle" x="108" y="-99.8" font-family="Times,serif" font-size="14.00" fill="#000000">LoginSpinnerComponent</text>
</g>
<!-- LoginSpinnerComponent&#45;&gt;LoginComponentsModule -->
<g id="edge3" class="edge">
<title>LoginSpinnerComponent&#45;&gt;LoginComponentsModule</title>
<path fill="none" stroke="#000000" d="M133.554,-122.0225C133.554,-139.3734 133.554,-163 133.554,-163 133.554,-163 210.7588,-163 210.7588,-163"/>
<polygon fill="#000000" stroke="#000000" points="210.7588,-166.5001 220.7588,-163 210.7588,-159.5001 210.7588,-166.5001"/>
</g>
<!-- LoginFormComponent  -->
<g id="node5" class="node">
<title>LoginFormComponent </title>
<polygon fill="#fb8072" stroke="#000000" points="568.1099,-252 419.8901,-252 419.8901,-216 568.1099,-216 568.1099,-252"/>
<text text-anchor="middle" x="494" y="-229.8" font-family="Times,serif" font-size="14.00" fill="#000000">LoginFormComponent </text>
</g>
<!-- LoginComponentsModule&#45;&gt;LoginFormComponent  -->
<g id="edge4" class="edge">
<title>LoginComponentsModule&#45;&gt;LoginFormComponent </title>
<path fill="none" stroke="#000000" stroke-dasharray="5,2" d="M384.8419,-175C426.1641,-175 467.6484,-175 467.6484,-175 467.6484,-175 467.6484,-205.9775 467.6484,-205.9775"/>
<polygon fill="#000000" stroke="#000000" points="464.1485,-205.9774 467.6484,-215.9775 471.1485,-205.9775 464.1485,-205.9774"/>
</g>
<!-- LoginMetadataSyncComponent  -->
<g id="node6" class="node">
<title>LoginMetadataSyncComponent </title>
<polygon fill="#fb8072" stroke="#000000" points="402.3573,-252 203.6427,-252 203.6427,-216 402.3573,-216 402.3573,-252"/>
<text text-anchor="middle" x="303" y="-229.8" font-family="Times,serif" font-size="14.00" fill="#000000">LoginMetadataSyncComponent </text>
</g>
<!-- LoginComponentsModule&#45;&gt;LoginMetadataSyncComponent  -->
<g id="edge5" class="edge">
<title>LoginComponentsModule&#45;&gt;LoginMetadataSyncComponent </title>
<path fill="none" stroke="#000000" stroke-dasharray="5,2" d="M303,-187.1061C303,-187.1061 303,-205.991 303,-205.991"/>
<polygon fill="#000000" stroke="#000000" points="299.5001,-205.9909 303,-215.991 306.5001,-205.991 299.5001,-205.9909"/>
</g>
<!-- LoginSpinnerComponent  -->
<g id="node7" class="node">
<title>LoginSpinnerComponent </title>
<polygon fill="#fb8072" stroke="#000000" points="185.8241,-252 24.1759,-252 24.1759,-216 185.8241,-216 185.8241,-252"/>
<text text-anchor="middle" x="105" y="-229.8" font-family="Times,serif" font-size="14.00" fill="#000000">LoginSpinnerComponent </text>
</g>
<!-- LoginComponentsModule&#45;&gt;LoginSpinnerComponent  -->
<g id="edge6" class="edge">
<title>LoginComponentsModule&#45;&gt;LoginSpinnerComponent </title>
<path fill="none" stroke="#000000" stroke-dasharray="5,2" d="M221.0386,-175C157.8549,-175 81.196,-175 81.196,-175 81.196,-175 81.196,-205.9775 81.196,-205.9775"/>
<polygon fill="#000000" stroke="#000000" points="77.6961,-205.9774 81.196,-215.9775 84.6961,-205.9775 77.6961,-205.9774"/>
</g>
</g>
</svg>
