<?xml version="1.0" encoding="UTF-8" standalone="no"?>
<!DOCTYPE svg PUBLIC "-//W3C//DTD SVG 1.1//EN"
 "http://www.w3.org/Graphics/SVG/1.1/DTD/svg11.dtd">
<!-- Generated by graphviz version 2.40.1 (20161225.0304)
 -->
<!-- Title: dependencies Pages: 1 -->
<svg width="504pt" height="284pt"
 viewBox="0.00 0.00 504.00 284.00" xmlns="http://www.w3.org/2000/svg" xmlns:xlink="http://www.w3.org/1999/xlink">
<g id="graph0" class="graph" transform="scale(1 1) rotate(0) translate(4 280)">
<title>dependencies</title>
<polygon fill="#ffffff" stroke="transparent" points="-4,4 -4,-280 500,-280 500,4 -4,4"/>
<text text-anchor="start" x="227.0091" y="-42.4" font-family="sans-serif" font-weight="bold" font-size="14.00" fill="#000000">Legend</text>
<polygon fill="#ffffb3" stroke="transparent" points="14,-10 14,-30 34,-30 34,-10 14,-10"/>
<text text-anchor="start" x="37.629" y="-15.4" font-family="sans-serif" font-size="14.00" fill="#000000"> &#160;Declarations</text>
<polygon fill="#8dd3c7" stroke="transparent" points="127,-10 127,-30 147,-30 147,-10 127,-10"/>
<text text-anchor="start" x="150.7251" y="-15.4" font-family="sans-serif" font-size="14.00" fill="#000000"> &#160;Module</text>
<polygon fill="#80b1d3" stroke="transparent" points="213,-10 213,-30 233,-30 233,-10 213,-10"/>
<text text-anchor="start" x="236.7812" y="-15.4" font-family="sans-serif" font-size="14.00" fill="#000000"> &#160;Bootstrap</text>
<polygon fill="#fdb462" stroke="transparent" points="310,-10 310,-30 330,-30 330,-10 310,-10"/>
<text text-anchor="start" x="333.6732" y="-15.4" font-family="sans-serif" font-size="14.00" fill="#000000"> &#160;Providers</text>
<polygon fill="#fb8072" stroke="transparent" points="406,-10 406,-30 426,-30 426,-10 406,-10"/>
<text text-anchor="start" x="429.7258" y="-15.4" font-family="sans-serif" font-size="14.00" fill="#000000"> &#160;Exports</text>
<g id="clust1" class="cluster">
<title>cluster_AppsComponentsModule</title>
<polygon fill="none" stroke="#000000" stroke-dasharray="1,5" points="58,-70 58,-268 438,-268 438,-70 58,-70"/>
</g>
<g id="clust2" class="cluster">
<title>cluster_AppsComponentsModule_declarations</title>
<polygon fill="none" stroke="#000000" points="70,-78 70,-130 427,-130 427,-78 70,-78"/>
</g>
<g id="clust6" class="cluster">
<title>cluster_AppsComponentsModule_exports</title>
<polygon fill="none" stroke="#000000" points="66,-208 66,-260 430,-260 430,-208 66,-208"/>
</g>
<!-- AppItemComponent -->
<g id="node1" class="node">
<title>AppItemComponent</title>
<polygon fill="#ffffb3" stroke="#000000" points="418.5954,-122 287.4046,-122 287.4046,-86 418.5954,-86 418.5954,-122"/>
<text text-anchor="middle" x="353" y="-99.8" font-family="Times,serif" font-size="14.00" fill="#000000">AppItemComponent</text>
</g>
<!-- AppsComponentsModule -->
<g id="node3" class="node">
<title>AppsComponentsModule</title>
<polygon fill="#8dd3c7" stroke="#000000" points="254.878,-187 251.878,-191 230.878,-191 227.878,-187 95.122,-187 95.122,-151 254.878,-151 254.878,-187"/>
<text text-anchor="middle" x="175" y="-164.8" font-family="Times,serif" font-size="14.00" fill="#000000">AppsComponentsModule</text>
</g>
<!-- AppItemComponent&#45;&gt;AppsComponentsModule -->
<g id="edge1" class="edge">
<title>AppItemComponent&#45;&gt;AppsComponentsModule</title>
<path fill="none" stroke="#000000" d="M374.9326,-122.0225C374.9326,-139.3734 374.9326,-163 374.9326,-163 374.9326,-163 264.8806,-163 264.8806,-163"/>
<polygon fill="#000000" stroke="#000000" points="264.8806,-159.5001 254.8806,-163 264.8806,-166.5001 264.8806,-159.5001"/>
</g>
<!-- AppsItemContainerComponent -->
<g id="node2" class="node">
<title>AppsItemContainerComponent</title>
<polygon fill="#ffffb3" stroke="#000000" points="269.7478,-122 78.2522,-122 78.2522,-86 269.7478,-86 269.7478,-122"/>
<text text-anchor="middle" x="174" y="-99.8" font-family="Times,serif" font-size="14.00" fill="#000000">AppsItemContainerComponent</text>
</g>
<!-- AppsItemContainerComponent&#45;&gt;AppsComponentsModule -->
<g id="edge2" class="edge">
<title>AppsItemContainerComponent&#45;&gt;AppsComponentsModule</title>
<path fill="none" stroke="#000000" d="M175,-122.1061C175,-122.1061 175,-140.991 175,-140.991"/>
<polygon fill="#000000" stroke="#000000" points="171.5001,-140.9909 175,-150.991 178.5001,-140.991 171.5001,-140.9909"/>
</g>
<!-- AppItemComponent  -->
<g id="node4" class="node">
<title>AppItemComponent </title>
<polygon fill="#fb8072" stroke="#000000" points="422.096,-252 287.904,-252 287.904,-216 422.096,-216 422.096,-252"/>
<text text-anchor="middle" x="355" y="-229.8" font-family="Times,serif" font-size="14.00" fill="#000000">AppItemComponent </text>
</g>
<!-- AppsComponentsModule&#45;&gt;AppItemComponent  -->
<g id="edge3" class="edge">
<title>AppsComponentsModule&#45;&gt;AppItemComponent </title>
<path fill="none" stroke="#000000" stroke-dasharray="5,2" d="M254.9904,-175C293.4498,-175 331.3174,-175 331.3174,-175 331.3174,-175 331.3174,-205.9775 331.3174,-205.9775"/>
<polygon fill="#000000" stroke="#000000" points="327.8175,-205.9774 331.3174,-215.9775 334.8175,-205.9775 327.8175,-205.9774"/>
</g>
<!-- AppsItemContainerComponent  -->
<g id="node5" class="node">
<title>AppsItemContainerComponent </title>
<polygon fill="#fb8072" stroke="#000000" points="269.7478,-252 74.2522,-252 74.2522,-216 269.7478,-216 269.7478,-252"/>
<text text-anchor="middle" x="172" y="-229.8" font-family="Times,serif" font-size="14.00" fill="#000000">AppsItemContainerComponent </text>
</g>
<!-- AppsComponentsModule&#45;&gt;AppsItemContainerComponent  -->
<g id="edge4" class="edge">
<title>AppsComponentsModule&#45;&gt;AppsItemContainerComponent </title>
<path fill="none" stroke="#000000" stroke-dasharray="5,2" d="M175,-187.1061C175,-187.1061 175,-205.991 175,-205.991"/>
<polygon fill="#000000" stroke="#000000" points="171.5001,-205.9909 175,-215.991 178.5001,-205.991 171.5001,-205.9909"/>
</g>
</g>
</svg>
