<?xml version="1.0" encoding="UTF-8" standalone="no"?>
<!DOCTYPE svg PUBLIC "-//W3C//DTD SVG 1.1//EN"
 "http://www.w3.org/Graphics/SVG/1.1/DTD/svg11.dtd">
<!-- Generated by graphviz version 2.40.1 (20161225.0304)
 -->
<!-- Title: dependencies Pages: 1 -->
<svg width="1052pt" height="284pt"
 viewBox="0.00 0.00 1052.00 284.00" xmlns="http://www.w3.org/2000/svg" xmlns:xlink="http://www.w3.org/1999/xlink">
<g id="graph0" class="graph" transform="scale(1 1) rotate(0) translate(4 280)">
<title>dependencies</title>
<polygon fill="#ffffff" stroke="transparent" points="-4,4 -4,-280 1048,-280 1048,4 -4,4"/>
<text text-anchor="start" x="501.0091" y="-42.4" font-family="sans-serif" font-weight="bold" font-size="14.00" fill="#000000">Legend</text>
<polygon fill="#ffffb3" stroke="transparent" points="288,-10 288,-30 308,-30 308,-10 288,-10"/>
<text text-anchor="start" x="311.629" y="-15.4" font-family="sans-serif" font-size="14.00" fill="#000000"> &#160;Declarations</text>
<polygon fill="#8dd3c7" stroke="transparent" points="401,-10 401,-30 421,-30 421,-10 401,-10"/>
<text text-anchor="start" x="424.7251" y="-15.4" font-family="sans-serif" font-size="14.00" fill="#000000"> &#160;Module</text>
<polygon fill="#80b1d3" stroke="transparent" points="487,-10 487,-30 507,-30 507,-10 487,-10"/>
<text text-anchor="start" x="510.7812" y="-15.4" font-family="sans-serif" font-size="14.00" fill="#000000"> &#160;Bootstrap</text>
<polygon fill="#fdb462" stroke="transparent" points="584,-10 584,-30 604,-30 604,-10 584,-10"/>
<text text-anchor="start" x="607.6732" y="-15.4" font-family="sans-serif" font-size="14.00" fill="#000000"> &#160;Providers</text>
<polygon fill="#fb8072" stroke="transparent" points="680,-10 680,-30 700,-30 700,-10 680,-10"/>
<text text-anchor="start" x="703.7258" y="-15.4" font-family="sans-serif" font-size="14.00" fill="#000000"> &#160;Exports</text>
<g id="clust1" class="cluster">
<title>cluster_SettingsComponentsModule</title>
<polygon fill="none" stroke="#000000" stroke-dasharray="1,5" points="8,-70 8,-268 1036,-268 1036,-70 8,-70"/>
</g>
<g id="clust2" class="cluster">
<title>cluster_SettingsComponentsModule_declarations</title>
<polygon fill="none" stroke="#000000" points="26,-78 26,-130 1019,-130 1019,-78 26,-78"/>
</g>
<g id="clust9" class="cluster">
<title>cluster_SettingsComponentsModule_exports</title>
<polygon fill="none" stroke="#000000" points="16,-208 16,-260 1028,-260 1028,-208 16,-208"/>
</g>
<!-- AppSettingsComponent -->
<g id="node1" class="node">
<title>AppSettingsComponent</title>
<polygon fill="#ffffb3" stroke="#000000" points="1011.0533,-122 860.9467,-122 860.9467,-86 1011.0533,-86 1011.0533,-122"/>
<text text-anchor="middle" x="936" y="-99.8" font-family="Times,serif" font-size="14.00" fill="#000000">AppSettingsComponent</text>
</g>
<!-- SettingsComponentsModule -->
<g id="node6" class="node">
<title>SettingsComponentsModule</title>
<polygon fill="#8dd3c7" stroke="#000000" points="645.941,-187 642.941,-191 621.941,-191 618.941,-187 470.059,-187 470.059,-151 645.941,-151 645.941,-187"/>
<text text-anchor="middle" x="558" y="-164.8" font-family="Times,serif" font-size="14.00" fill="#000000">SettingsComponentsModule</text>
</g>
<!-- AppSettingsComponent&#45;&gt;SettingsComponentsModule -->
<g id="edge1" class="edge">
<title>AppSettingsComponent&#45;&gt;SettingsComponentsModule</title>
<path fill="none" stroke="#000000" d="M962.8421,-122.2667C962.8421,-140.5552 962.8421,-166 962.8421,-166 962.8421,-166 655.8447,-166 655.8447,-166"/>
<polygon fill="#000000" stroke="#000000" points="655.8447,-162.5001 645.8447,-166 655.8447,-169.5001 655.8447,-162.5001"/>
</g>
<!-- BarcodeSettingsComponent -->
<g id="node2" class="node">
<title>BarcodeSettingsComponent</title>
<polygon fill="#ffffb3" stroke="#000000" points="842.587,-122 669.413,-122 669.413,-86 842.587,-86 842.587,-122"/>
<text text-anchor="middle" x="756" y="-99.8" font-family="Times,serif" font-size="14.00" fill="#000000">BarcodeSettingsComponent</text>
</g>
<!-- BarcodeSettingsComponent&#45;&gt;SettingsComponentsModule -->
<g id="edge2" class="edge">
<title>BarcodeSettingsComponent&#45;&gt;SettingsComponentsModule</title>
<path fill="none" stroke="#000000" d="M785.5978,-122.0091C785.5978,-138.0494 785.5978,-159 785.5978,-159 785.5978,-159 655.9953,-159 655.9953,-159"/>
<polygon fill="#000000" stroke="#000000" points="655.9953,-155.5001 645.9953,-159 655.9952,-162.5001 655.9953,-155.5001"/>
</g>
<!-- EntryFormSettingsComponent -->
<g id="node3" class="node">
<title>EntryFormSettingsComponent</title>
<polygon fill="#ffffb3" stroke="#000000" points="651.8836,-122 464.1164,-122 464.1164,-86 651.8836,-86 651.8836,-122"/>
<text text-anchor="middle" x="558" y="-99.8" font-family="Times,serif" font-size="14.00" fill="#000000">EntryFormSettingsComponent</text>
</g>
<!-- EntryFormSettingsComponent&#45;&gt;SettingsComponentsModule -->
<g id="edge3" class="edge">
<title>EntryFormSettingsComponent&#45;&gt;SettingsComponentsModule</title>
<path fill="none" stroke="#000000" d="M558,-122.1061C558,-122.1061 558,-140.991 558,-140.991"/>
<polygon fill="#000000" stroke="#000000" points="554.5001,-140.9909 558,-150.991 561.5001,-140.991 554.5001,-140.9909"/>
</g>
<!-- SettingContainerComponent -->
<g id="node4" class="node">
<title>SettingContainerComponent</title>
<polygon fill="#ffffb3" stroke="#000000" points="446.2091,-122 269.7909,-122 269.7909,-86 446.2091,-86 446.2091,-122"/>
<text text-anchor="middle" x="358" y="-99.8" font-family="Times,serif" font-size="14.00" fill="#000000">SettingContainerComponent</text>
</g>
<!-- SettingContainerComponent&#45;&gt;SettingsComponentsModule -->
<g id="edge4" class="edge">
<title>SettingContainerComponent&#45;&gt;SettingsComponentsModule</title>
<path fill="none" stroke="#000000" d="M385.8682,-122.0091C385.8682,-138.0494 385.8682,-159 385.8682,-159 385.8682,-159 460.1692,-159 460.1692,-159"/>
<polygon fill="#000000" stroke="#000000" points="460.1692,-162.5001 470.1692,-159 460.1691,-155.5001 460.1692,-162.5001"/>
</g>
<!-- SynchronizationSettingsComponent -->
<g id="node5" class="node">
<title>SynchronizationSettingsComponent</title>
<polygon fill="#ffffb3" stroke="#000000" points="252.2049,-122 33.7951,-122 33.7951,-86 252.2049,-86 252.2049,-122"/>
<text text-anchor="middle" x="143" y="-99.8" font-family="Times,serif" font-size="14.00" fill="#000000">SynchronizationSettingsComponent</text>
</g>
<!-- SynchronizationSettingsComponent&#45;&gt;SettingsComponentsModule -->
<g id="edge5" class="edge">
<title>SynchronizationSettingsComponent&#45;&gt;SettingsComponentsModule</title>
<path fill="none" stroke="#000000" d="M175.2008,-122.2667C175.2008,-140.5552 175.2008,-166 175.2008,-166 175.2008,-166 460.1781,-166 460.1781,-166"/>
<polygon fill="#000000" stroke="#000000" points="460.1782,-169.5001 470.1781,-166 460.1781,-162.5001 460.1782,-169.5001"/>
</g>
<!-- AppSettingsComponent  -->
<g id="node7" class="node">
<title>AppSettingsComponent </title>
<polygon fill="#fb8072" stroke="#000000" points="1020.0526,-252 865.9474,-252 865.9474,-216 1020.0526,-216 1020.0526,-252"/>
<text text-anchor="middle" x="943" y="-229.8" font-family="Times,serif" font-size="14.00" fill="#000000">AppSettingsComponent </text>
</g>
<!-- SettingsComponentsModule&#45;&gt;AppSettingsComponent  -->
<g id="edge6" class="edge">
<title>SettingsComponentsModule&#45;&gt;AppSettingsComponent </title>
<path fill="none" stroke="#000000" stroke-dasharray="5,2" d="M646.1009,-173C751.6434,-173 914.4079,-173 914.4079,-173 914.4079,-173 914.4079,-205.698 914.4079,-205.698"/>
<polygon fill="#000000" stroke="#000000" points="910.908,-205.698 914.4079,-215.698 917.908,-205.698 910.908,-205.698"/>
</g>
<!-- BarcodeSettingsComponent  -->
<g id="node8" class="node">
<title>BarcodeSettingsComponent </title>
<polygon fill="#fb8072" stroke="#000000" points="848.0875,-252 671.9125,-252 671.9125,-216 848.0875,-216 848.0875,-252"/>
<text text-anchor="middle" x="760" y="-229.8" font-family="Times,serif" font-size="14.00" fill="#000000">BarcodeSettingsComponent </text>
</g>
<!-- SettingsComponentsModule&#45;&gt;BarcodeSettingsComponent  -->
<g id="edge7" class="edge">
<title>SettingsComponentsModule&#45;&gt;BarcodeSettingsComponent </title>
<path fill="none" stroke="#000000" stroke-dasharray="5,2" d="M645.8256,-180C687.6394,-180 728.6522,-180 728.6522,-180 728.6522,-180 728.6522,-205.7181 728.6522,-205.7181"/>
<polygon fill="#000000" stroke="#000000" points="725.1523,-205.718 728.6522,-215.7181 732.1523,-205.7181 725.1523,-205.718"/>
</g>
<!-- EntryFormSettingsComponent  -->
<g id="node9" class="node">
<title>EntryFormSettingsComponent </title>
<polygon fill="#fb8072" stroke="#000000" points="653.884,-252 462.116,-252 462.116,-216 653.884,-216 653.884,-252"/>
<text text-anchor="middle" x="558" y="-229.8" font-family="Times,serif" font-size="14.00" fill="#000000">EntryFormSettingsComponent </text>
</g>
<!-- SettingsComponentsModule&#45;&gt;EntryFormSettingsComponent  -->
<g id="edge8" class="edge">
<title>SettingsComponentsModule&#45;&gt;EntryFormSettingsComponent </title>
<path fill="none" stroke="#000000" stroke-dasharray="5,2" d="M558,-187.1061C558,-187.1061 558,-205.991 558,-205.991"/>
<polygon fill="#000000" stroke="#000000" points="554.5001,-205.9909 558,-215.991 561.5001,-205.991 554.5001,-205.9909"/>
</g>
<!-- SettingContainerComponent  -->
<g id="node10" class="node">
<title>SettingContainerComponent </title>
<polygon fill="#fb8072" stroke="#000000" points="443.7092,-252 264.2908,-252 264.2908,-216 443.7092,-216 443.7092,-252"/>
<text text-anchor="middle" x="354" y="-229.8" font-family="Times,serif" font-size="14.00" fill="#000000">SettingContainerComponent </text>
</g>
<!-- SettingsComponentsModule&#45;&gt;SettingContainerComponent  -->
<g id="edge9" class="edge">
<title>SettingsComponentsModule&#45;&gt;SettingContainerComponent </title>
<path fill="none" stroke="#000000" stroke-dasharray="5,2" d="M470.0172,-180C405.0539,-180 327.8818,-180 327.8818,-180 327.8818,-180 327.8818,-205.7181 327.8818,-205.7181"/>
<polygon fill="#000000" stroke="#000000" points="324.3819,-205.718 327.8818,-215.7181 331.3819,-205.7181 324.3819,-205.718"/>
</g>
<!-- SynchronizationSettingsComponent  -->
<g id="node11" class="node">
<title>SynchronizationSettingsComponent </title>
<polygon fill="#fb8072" stroke="#000000" points="245.705,-252 24.295,-252 24.295,-216 245.705,-216 245.705,-252"/>
<text text-anchor="middle" x="135" y="-229.8" font-family="Times,serif" font-size="14.00" fill="#000000">SynchronizationSettingsComponent </text>
</g>
<!-- SettingsComponentsModule&#45;&gt;SynchronizationSettingsComponent  -->
<g id="edge10" class="edge">
<title>SettingsComponentsModule&#45;&gt;SynchronizationSettingsComponent </title>
<path fill="none" stroke="#000000" stroke-dasharray="5,2" d="M470.0325,-173C338.1665,-173 104.5492,-173 104.5492,-173 104.5492,-173 104.5492,-205.698 104.5492,-205.698"/>
<polygon fill="#000000" stroke="#000000" points="101.0491,-205.698 104.5492,-215.698 108.0491,-205.698 101.0491,-205.698"/>
</g>
</g>
</svg>
