<?xml version="1.0" encoding="UTF-8" standalone="no"?>
<!DOCTYPE svg PUBLIC "-//W3C//DTD SVG 1.1//EN"
 "http://www.w3.org/Graphics/SVG/1.1/DTD/svg11.dtd">
<!-- Generated by graphviz version 2.40.1 (20161225.0304)
 -->
<!-- Title: dependencies Pages: 1 -->
<svg width="8944pt" height="284pt"
 viewBox="0.00 0.00 8944.00 284.00" xmlns="http://www.w3.org/2000/svg" xmlns:xlink="http://www.w3.org/1999/xlink">
<g id="graph0" class="graph" transform="scale(1 1) rotate(0) translate(4 280)">
<title>dependencies</title>
<polygon fill="#ffffff" stroke="transparent" points="-4,4 -4,-280 8940,-280 8940,4 -4,4"/>
<text text-anchor="start" x="4447.0091" y="-42.4" font-family="sans-serif" font-weight="bold" font-size="14.00" fill="#000000">Legend</text>
<polygon fill="#ffffb3" stroke="transparent" points="4234,-10 4234,-30 4254,-30 4254,-10 4234,-10"/>
<text text-anchor="start" x="4257.629" y="-15.4" font-family="sans-serif" font-size="14.00" fill="#000000"> &#160;Declarations</text>
<polygon fill="#8dd3c7" stroke="transparent" points="4347,-10 4347,-30 4367,-30 4367,-10 4347,-10"/>
<text text-anchor="start" x="4370.7251" y="-15.4" font-family="sans-serif" font-size="14.00" fill="#000000"> &#160;Module</text>
<polygon fill="#80b1d3" stroke="transparent" points="4433,-10 4433,-30 4453,-30 4453,-10 4433,-10"/>
<text text-anchor="start" x="4456.7812" y="-15.4" font-family="sans-serif" font-size="14.00" fill="#000000"> &#160;Bootstrap</text>
<polygon fill="#fdb462" stroke="transparent" points="4530,-10 4530,-30 4550,-30 4550,-10 4530,-10"/>
<text text-anchor="start" x="4553.6732" y="-15.4" font-family="sans-serif" font-size="14.00" fill="#000000"> &#160;Providers</text>
<polygon fill="#fb8072" stroke="transparent" points="4626,-10 4626,-30 4646,-30 4646,-10 4626,-10"/>
<text text-anchor="start" x="4649.7258" y="-15.4" font-family="sans-serif" font-size="14.00" fill="#000000"> &#160;Exports</text>
<g id="clust1" class="cluster">
<title>cluster_AppModule</title>
<polygon fill="none" stroke="#000000" stroke-dasharray="1,5" points="8,-70 8,-268 8928,-268 8928,-70 8,-70"/>
</g>
<g id="clust2" class="cluster">
<title>cluster_AppModule_declarations</title>
<polygon fill="none" stroke="#000000" points="8798,-78 8798,-130 8920,-130 8920,-78 8798,-78"/>
</g>
<g id="clust4" class="cluster">
<title>cluster_AppModule_imports</title>
<polygon fill="none" stroke="#000000" points="6919,-78 6919,-130 8790,-130 8790,-78 6919,-78"/>
</g>
<g id="clust6" class="cluster">
<title>cluster_AppModule_bootstrap</title>
<polygon fill="none" stroke="#000000" points="4369,-208 4369,-260 4493,-260 4493,-208 4369,-208"/>
</g>
<g id="clust7" class="cluster">
<title>cluster_AppModule_providers</title>
<polygon fill="none" stroke="#000000" points="16,-78 16,-130 6911,-130 6911,-78 16,-78"/>
</g>
<!-- AppComponent -->
<g id="node1" class="node">
<title>AppComponent</title>
<polygon fill="#ffffb3" stroke="#000000" points="8911.9399,-122 8806.0601,-122 8806.0601,-86 8911.9399,-86 8911.9399,-122"/>
<text text-anchor="middle" x="8859" y="-99.8" font-family="Times,serif" font-size="14.00" fill="#000000">AppComponent</text>
</g>
<!-- AppModule -->
<g id="node2" class="node">
<title>AppModule</title>
<polygon fill="#8dd3c7" stroke="#000000" points="4472.6571,-187 4469.6571,-191 4448.6571,-191 4445.6571,-187 4389.3429,-187 4389.3429,-151 4472.6571,-151 4472.6571,-187"/>
<text text-anchor="middle" x="4431" y="-164.8" font-family="Times,serif" font-size="14.00" fill="#000000">AppModule</text>
</g>
<!-- AppComponent&#45;&gt;AppModule -->
<g id="edge1" class="edge">
<title>AppComponent&#45;&gt;AppModule</title>
<path fill="none" stroke="#000000" d="M8859,-122.1985C8859,-146.3563 8859,-186 8859,-186 8859,-186 4482.7039,-186 4482.7039,-186"/>
<polygon fill="#000000" stroke="#000000" points="4482.704,-182.5001 4472.7039,-186 4482.7039,-189.5001 4482.704,-182.5001"/>
</g>
<!-- AppComponent  -->
<g id="node12" class="node">
<title>AppComponent </title>
<polygon fill="#80b1d3" stroke="#000000" points="4485.439,-252 4376.561,-252 4376.561,-216 4485.439,-216 4485.439,-252"/>
<text text-anchor="middle" x="4431" y="-229.8" font-family="Times,serif" font-size="14.00" fill="#000000">AppComponent </text>
</g>
<!-- AppModule&#45;&gt;AppComponent  -->
<g id="edge11" class="edge">
<title>AppModule&#45;&gt;AppComponent </title>
<path fill="none" stroke="#000000" stroke-dasharray="1,5" d="M4431,-187.1061C4431,-187.1061 4431,-205.991 4431,-205.991"/>
<polygon fill="#000000" stroke="#000000" points="4427.5001,-205.9909 4431,-215.991 4434.5001,-205.991 4427.5001,-205.9909"/>
</g>
<!-- AppRoutingModule -->
<g id="node3" class="node">
<title>AppRoutingModule</title>
<polygon fill="#8dd3c7" stroke="#000000" points="8782.2744,-122 8779.2744,-126 8758.2744,-126 8755.2744,-122 8653.7256,-122 8653.7256,-86 8782.2744,-86 8782.2744,-122"/>
<text text-anchor="middle" x="8718" y="-99.8" font-family="Times,serif" font-size="14.00" fill="#000000">AppRoutingModule</text>
</g>
<!-- AppRoutingModule&#45;&gt;AppModule -->
<g id="edge2" class="edge">
<title>AppRoutingModule&#45;&gt;AppModule</title>
<path fill="none" stroke="#000000" d="M8718,-122.1532C8718,-145.7566 8718,-184 8718,-184 8718,-184 4482.7399,-184 4482.7399,-184"/>
<polygon fill="#000000" stroke="#000000" points="4482.7399,-180.5001 4472.7399,-184 4482.7398,-187.5001 4482.7399,-180.5001"/>
</g>
<!-- CoordinateSelectionPageModule -->
<g id="node4" class="node">
<title>CoordinateSelectionPageModule</title>
<polygon fill="#8dd3c7" stroke="#000000" points="8635.5674,-122 8632.5674,-126 8611.5674,-126 8608.5674,-122 8434.4326,-122 8434.4326,-86 8635.5674,-86 8635.5674,-122"/>
<text text-anchor="middle" x="8535" y="-99.8" font-family="Times,serif" font-size="14.00" fill="#000000">CoordinateSelectionPageModule</text>
</g>
<!-- CoordinateSelectionPageModule&#45;&gt;AppModule -->
<g id="edge3" class="edge">
<title>CoordinateSelectionPageModule&#45;&gt;AppModule</title>
<path fill="none" stroke="#000000" d="M8535,-122.3228C8535,-145.6602 8535,-183 8535,-183 8535,-183 4482.9555,-183 4482.9555,-183"/>
<polygon fill="#000000" stroke="#000000" points="4482.9556,-179.5001 4472.9555,-183 4482.9555,-186.5001 4482.9556,-179.5001"/>
</g>
<!-- LocalInstanceSelectionPageModule -->
<g id="node5" class="node">
<title>LocalInstanceSelectionPageModule</title>
<polygon fill="#8dd3c7" stroke="#000000" points="8416.8721,-122 8413.8721,-126 8392.8721,-126 8389.8721,-122 8199.1279,-122 8199.1279,-86 8416.8721,-86 8416.8721,-122"/>
<text text-anchor="middle" x="8308" y="-99.8" font-family="Times,serif" font-size="14.00" fill="#000000">LocalInstanceSelectionPageModule</text>
</g>
<!-- LocalInstanceSelectionPageModule&#45;&gt;AppModule -->
<g id="edge4" class="edge">
<title>LocalInstanceSelectionPageModule&#45;&gt;AppModule</title>
<path fill="none" stroke="#000000" d="M8308,-122.2479C8308,-145.0179 8308,-181 8308,-181 8308,-181 4482.8919,-181 4482.8919,-181"/>
<polygon fill="#000000" stroke="#000000" points="4482.8919,-177.5001 4472.8919,-181 4482.8918,-184.5001 4482.8919,-177.5001"/>
</g>
<!-- OptionSetSelectionPageModule -->
<g id="node6" class="node">
<title>OptionSetSelectionPageModule</title>
<polygon fill="#8dd3c7" stroke="#000000" points="8180.6357,-122 8177.6357,-126 8156.6357,-126 8153.6357,-122 7985.3643,-122 7985.3643,-86 8180.6357,-86 8180.6357,-122"/>
<text text-anchor="middle" x="8083" y="-99.8" font-family="Times,serif" font-size="14.00" fill="#000000">OptionSetSelectionPageModule</text>
</g>
<!-- OptionSetSelectionPageModule&#45;&gt;AppModule -->
<g id="edge5" class="edge">
<title>OptionSetSelectionPageModule&#45;&gt;AppModule</title>
<path fill="none" stroke="#000000" d="M8083,-122.1554C8083,-144.3519 8083,-179 8083,-179 8083,-179 4482.9592,-179 4482.9592,-179"/>
<polygon fill="#000000" stroke="#000000" points="4482.9592,-175.5001 4472.9592,-179 4482.9591,-182.5001 4482.9592,-175.5001"/>
</g>
<!-- OrganisationUnitSearchPageModule -->
<g id="node7" class="node">
<title>OrganisationUnitSearchPageModule</title>
<polygon fill="#8dd3c7" stroke="#000000" points="7967.0492,-122 7964.0492,-126 7943.0492,-126 7940.0492,-122 7744.9508,-122 7744.9508,-86 7967.0492,-86 7967.0492,-122"/>
<text text-anchor="middle" x="7856" y="-99.8" font-family="Times,serif" font-size="14.00" fill="#000000">OrganisationUnitSearchPageModule</text>
</g>
<!-- OrganisationUnitSearchPageModule&#45;&gt;AppModule -->
<g id="edge6" class="edge">
<title>OrganisationUnitSearchPageModule&#45;&gt;AppModule</title>
<path fill="none" stroke="#000000" d="M7856,-122.2921C7856,-144.2057 7856,-178 7856,-178 7856,-178 4482.7627,-178 4482.7627,-178"/>
<polygon fill="#000000" stroke="#000000" points="4482.7628,-174.5001 4472.7627,-178 4482.7627,-181.5001 4482.7628,-174.5001"/>
</g>
<!-- OrganisationUnitSelectionPageModule -->
<g id="node8" class="node">
<title>OrganisationUnitSelectionPageModule</title>
<polygon fill="#8dd3c7" stroke="#000000" points="7727.0604,-122 7724.0604,-126 7703.0604,-126 7700.0604,-122 7490.9396,-122 7490.9396,-86 7727.0604,-86 7727.0604,-122"/>
<text text-anchor="middle" x="7609" y="-99.8" font-family="Times,serif" font-size="14.00" fill="#000000">OrganisationUnitSelectionPageModule</text>
</g>
<!-- OrganisationUnitSelectionPageModule&#45;&gt;AppModule -->
<g id="edge7" class="edge">
<title>OrganisationUnitSelectionPageModule&#45;&gt;AppModule</title>
<path fill="none" stroke="#000000" d="M7609,-122.1686C7609,-143.498 7609,-176 7609,-176 7609,-176 4482.931,-176 4482.931,-176"/>
<polygon fill="#000000" stroke="#000000" points="4482.9311,-172.5001 4472.931,-176 4482.931,-179.5001 4482.9311,-172.5001"/>
</g>
<!-- PeriodSelectionPageModule -->
<g id="node9" class="node">
<title>PeriodSelectionPageModule</title>
<polygon fill="#8dd3c7" stroke="#000000" points="7472.9087,-122 7469.9087,-126 7448.9087,-126 7445.9087,-122 7297.0913,-122 7297.0913,-86 7472.9087,-86 7472.9087,-122"/>
<text text-anchor="middle" x="7385" y="-99.8" font-family="Times,serif" font-size="14.00" fill="#000000">PeriodSelectionPageModule</text>
</g>
<!-- PeriodSelectionPageModule&#45;&gt;AppModule -->
<g id="edge8" class="edge">
<title>PeriodSelectionPageModule&#45;&gt;AppModule</title>
<path fill="none" stroke="#000000" d="M7385,-122.0267C7385,-142.7672 7385,-174 7385,-174 7385,-174 4482.7587,-174 4482.7587,-174"/>
<polygon fill="#000000" stroke="#000000" points="4482.7587,-170.5001 4472.7587,-174 4482.7586,-177.5001 4482.7587,-170.5001"/>
</g>
<!-- SettingsPageModule -->
<g id="node10" class="node">
<title>SettingsPageModule</title>
<polygon fill="#8dd3c7" stroke="#000000" points="7278.8753,-122 7275.8753,-126 7254.8753,-126 7251.8753,-122 7147.1247,-122 7147.1247,-86 7278.8753,-86 7278.8753,-122"/>
<text text-anchor="middle" x="7213" y="-99.8" font-family="Times,serif" font-size="14.00" fill="#000000">SettingsPageModule</text>
</g>
<!-- SettingsPageModule&#45;&gt;AppModule -->
<g id="edge9" class="edge">
<title>SettingsPageModule&#45;&gt;AppModule</title>
<path fill="none" stroke="#000000" d="M7213,-122.1289C7213,-142.5724 7213,-173 7213,-173 7213,-173 4482.7593,-173 4482.7593,-173"/>
<polygon fill="#000000" stroke="#000000" points="4482.7593,-169.5001 4472.7593,-173 4482.7593,-176.5001 4482.7593,-169.5001"/>
</g>
<!-- TranslationSelectionPageModule -->
<g id="node11" class="node">
<title>TranslationSelectionPageModule</title>
<polygon fill="#8dd3c7" stroke="#000000" points="7129.119,-122 7126.119,-126 7105.119,-126 7102.119,-122 6926.881,-122 6926.881,-86 7129.119,-86 7129.119,-122"/>
<text text-anchor="middle" x="7028" y="-99.8" font-family="Times,serif" font-size="14.00" fill="#000000">TranslationSelectionPageModule</text>
</g>
<!-- TranslationSelectionPageModule&#45;&gt;AppModule -->
<g id="edge10" class="edge">
<title>TranslationSelectionPageModule&#45;&gt;AppModule</title>
<path fill="none" stroke="#000000" d="M7028,-122.308C7028,-142.1455 7028,-171 7028,-171 7028,-171 4482.8445,-171 4482.8445,-171"/>
<polygon fill="#000000" stroke="#000000" points="4482.8446,-167.5001 4472.8445,-171 4482.8445,-174.5001 4482.8446,-167.5001"/>
</g>
<!-- AppColorService -->
<g id="node13" class="node">
<title>AppColorService</title>
<ellipse fill="#fdb462" stroke="#000000" cx="6824" cy="-104" rx="78.7318" ry="18"/>
<text text-anchor="middle" x="6824" y="-99.8" font-family="Times,serif" font-size="14.00" fill="#000000">AppColorService</text>
</g>
<!-- AppColorService&#45;&gt;AppModule -->
<g id="edge12" class="edge">
<title>AppColorService&#45;&gt;AppModule</title>
<path fill="none" stroke="#000000" d="M6824,-122.1061C6824,-141.3391 6824,-169 6824,-169 6824,-169 4482.7878,-169 4482.7878,-169"/>
<polygon fill="#000000" stroke="#000000" points="4482.7879,-165.5001 4472.7878,-169 4482.7878,-172.5001 4482.7879,-165.5001"/>
</g>
<!-- AppConfigService -->
<g id="node14" class="node">
<title>AppConfigService</title>
<ellipse fill="#fdb462" stroke="#000000" cx="6644" cy="-104" rx="83.3886" ry="18"/>
<text text-anchor="middle" x="6644" y="-99.8" font-family="Times,serif" font-size="14.00" fill="#000000">AppConfigService</text>
</g>
<!-- AppConfigService&#45;&gt;AppModule -->
<g id="edge13" class="edge">
<title>AppConfigService&#45;&gt;AppModule</title>
<path fill="none" stroke="#000000" d="M6644,-122.1686C6644,-141.0898 6644,-168 6644,-168 6644,-168 4482.7446,-168 4482.7446,-168"/>
<polygon fill="#000000" stroke="#000000" points="4482.7447,-164.5001 4472.7446,-168 4482.7446,-171.5001 4482.7447,-164.5001"/>
</g>
<!-- AppTransalationsService -->
<g id="node15" class="node">
<title>AppTransalationsService</title>
<ellipse fill="#fdb462" stroke="#000000" cx="6434" cy="-104" rx="108.7845" ry="18"/>
<text text-anchor="middle" x="6434" y="-99.8" font-family="Times,serif" font-size="14.00" fill="#000000">AppTransalationsService</text>
</g>
<!-- AppTransalationsService&#45;&gt;AppModule -->
<g id="edge14" class="edge">
<title>AppTransalationsService&#45;&gt;AppModule</title>
<path fill="none" stroke="#000000" d="M6434,-122.2667C6434,-140.5552 6434,-166 6434,-166 6434,-166 4482.8355,-166 4482.8355,-166"/>
<polygon fill="#000000" stroke="#000000" points="4482.8355,-162.5001 4472.8355,-166 4482.8355,-169.5001 4482.8355,-162.5001"/>
</g>
<!-- BarcodeReaderService -->
<g id="node16" class="node">
<title>BarcodeReaderService</title>
<ellipse fill="#fdb462" stroke="#000000" cx="6208" cy="-104" rx="99.5153" ry="18"/>
<text text-anchor="middle" x="6208" y="-99.8" font-family="Times,serif" font-size="14.00" fill="#000000">BarcodeReaderService</text>
</g>
<!-- BarcodeReaderService&#45;&gt;AppModule -->
<g id="edge15" class="edge">
<title>BarcodeReaderService&#45;&gt;AppModule</title>
<path fill="none" stroke="#000000" d="M6208,-122.302C6208,-140.2699 6208,-165 6208,-165 6208,-165 4482.7404,-165 4482.7404,-165"/>
<polygon fill="#000000" stroke="#000000" points="4482.7404,-161.5001 4472.7404,-165 4482.7404,-168.5001 4482.7404,-161.5001"/>
</g>
<!-- CategoryComboService -->
<g id="node17" class="node">
<title>CategoryComboService</title>
<ellipse fill="#fdb462" stroke="#000000" cx="5987" cy="-104" rx="103.6547" ry="18"/>
<text text-anchor="middle" x="5987" y="-99.8" font-family="Times,serif" font-size="14.00" fill="#000000">CategoryComboService</text>
</g>
<!-- CategoryComboService&#45;&gt;AppModule -->
<g id="edge16" class="edge">
<title>CategoryComboService&#45;&gt;AppModule</title>
<path fill="none" stroke="#000000" d="M5987,-122.0225C5987,-139.3734 5987,-163 5987,-163 5987,-163 4483.0218,-163 4483.0218,-163"/>
<polygon fill="#000000" stroke="#000000" points="4483.0219,-159.5001 4473.0218,-163 4483.0218,-166.5001 4483.0219,-159.5001"/>
</g>
<!-- CurrentEntrySelectionStorageService -->
<g id="node18" class="node">
<title>CurrentEntrySelectionStorageService</title>
<ellipse fill="#fdb462" stroke="#000000" cx="5709" cy="-104" rx="156.2549" ry="18"/>
<text text-anchor="middle" x="5709" y="-99.8" font-family="Times,serif" font-size="14.00" fill="#000000">CurrentEntrySelectionStorageService</text>
</g>
<!-- CurrentEntrySelectionStorageService&#45;&gt;AppModule -->
<g id="edge17" class="edge">
<title>CurrentEntrySelectionStorageService&#45;&gt;AppModule</title>
<path fill="none" stroke="#000000" d="M5709,-122.0352C5709,-138.7344 5709,-161 5709,-161 5709,-161 4482.7948,-161 4482.7948,-161"/>
<polygon fill="#000000" stroke="#000000" points="4482.7948,-157.5001 4472.7948,-161 4482.7947,-164.5001 4482.7948,-157.5001"/>
</g>
<!-- DataElementService -->
<g id="node19" class="node">
<title>DataElementService</title>
<ellipse fill="#fdb462" stroke="#000000" cx="5444" cy="-104" rx="90.3024" ry="18"/>
<text text-anchor="middle" x="5444" y="-99.8" font-family="Times,serif" font-size="14.00" fill="#000000">DataElementService</text>
</g>
<!-- DataElementService&#45;&gt;AppModule -->
<g id="edge18" class="edge">
<title>DataElementService&#45;&gt;AppModule</title>
<path fill="none" stroke="#000000" d="M5444,-122.027C5444,-138.3976 5444,-160 5444,-160 5444,-160 4482.918,-160 4482.918,-160"/>
<polygon fill="#000000" stroke="#000000" points="4482.918,-156.5001 4472.918,-160 4482.9179,-163.5001 4482.918,-156.5001"/>
</g>
<!-- DataSetSelectionService -->
<g id="node20" class="node">
<title>DataSetSelectionService</title>
<ellipse fill="#fdb462" stroke="#000000" cx="5229" cy="-104" rx="106.4908" ry="18"/>
<text text-anchor="middle" x="5229" y="-99.8" font-family="Times,serif" font-size="14.00" fill="#000000">DataSetSelectionService</text>
</g>
<!-- DataSetSelectionService&#45;&gt;AppModule -->
<g id="edge19" class="edge">
<title>DataSetSelectionService&#45;&gt;AppModule</title>
<path fill="none" stroke="#000000" d="M5229,-122.2819C5229,-137.9478 5229,-158 5229,-158 5229,-158 4482.7804,-158 4482.7804,-158"/>
<polygon fill="#000000" stroke="#000000" points="4482.7804,-154.5001 4472.7804,-158 4482.7804,-161.5001 4482.7804,-154.5001"/>
</g>
<!-- DataSetService -->
<g id="node21" class="node">
<title>DataSetService</title>
<ellipse fill="#fdb462" stroke="#000000" cx="5034" cy="-104" rx="70.6181" ry="18"/>
<text text-anchor="middle" x="5034" y="-99.8" font-family="Times,serif" font-size="14.00" fill="#000000">DataSetService</text>
</g>
<!-- DataSetService&#45;&gt;AppModule -->
<g id="edge20" class="edge">
<title>DataSetService&#45;&gt;AppModule</title>
<path fill="none" stroke="#000000" d="M5034,-122.1871C5034,-137.1824 5034,-156 5034,-156 5034,-156 4482.923,-156 4482.923,-156"/>
<polygon fill="#000000" stroke="#000000" points="4482.9231,-152.5001 4472.923,-156 4482.923,-159.5001 4482.9231,-152.5001"/>
</g>
<!-- DataStoreManagerService -->
<g id="node22" class="node">
<title>DataStoreManagerService</title>
<ellipse fill="#fdb462" stroke="#000000" cx="4833" cy="-104" rx="112.8365" ry="18"/>
<text text-anchor="middle" x="4833" y="-99.8" font-family="Times,serif" font-size="14.00" fill="#000000">DataStoreManagerService</text>
</g>
<!-- DataStoreManagerService&#45;&gt;AppModule -->
<g id="edge21" class="edge">
<title>DataStoreManagerService&#45;&gt;AppModule</title>
<path fill="none" stroke="#000000" d="M4833,-122.1243C4833,-136.7832 4833,-155 4833,-155 4833,-155 4482.8834,-155 4482.8834,-155"/>
<polygon fill="#000000" stroke="#000000" points="4482.8834,-151.5001 4472.8834,-155 4482.8834,-158.5001 4482.8834,-151.5001"/>
</g>
<!-- EncryptionService -->
<g id="node23" class="node">
<title>EncryptionService</title>
<ellipse fill="#fdb462" stroke="#000000" cx="4619" cy="-104" rx="82.8052" ry="18"/>
<text text-anchor="middle" x="4619" y="-99.8" font-family="Times,serif" font-size="14.00" fill="#000000">EncryptionService</text>
</g>
<!-- EncryptionService&#45;&gt;AppModule -->
<g id="edge22" class="edge">
<title>EncryptionService&#45;&gt;AppModule</title>
<path fill="none" stroke="#000000" d="M4619,-122.2458C4619,-136.1772 4619,-153 4619,-153 4619,-153 4482.7233,-153 4482.7233,-153"/>
<polygon fill="#000000" stroke="#000000" points="4482.7233,-149.5001 4472.7233,-153 4482.7233,-156.5001 4482.7233,-149.5001"/>
</g>
<!-- GeolocationService -->
<g id="node24" class="node">
<title>GeolocationService</title>
<ellipse fill="#fdb462" stroke="#000000" cx="4431" cy="-104" rx="87.377" ry="18"/>
<text text-anchor="middle" x="4431" y="-99.8" font-family="Times,serif" font-size="14.00" fill="#000000">GeolocationService</text>
</g>
<!-- GeolocationService&#45;&gt;AppModule -->
<g id="edge23" class="edge">
<title>GeolocationService&#45;&gt;AppModule</title>
<path fill="none" stroke="#000000" d="M4431,-122.1061C4431,-122.1061 4431,-140.991 4431,-140.991"/>
<polygon fill="#000000" stroke="#000000" points="4427.5001,-140.9909 4431,-150.991 4434.5001,-140.991 4427.5001,-140.9909"/>
</g>
<!-- HttpClientService -->
<g id="node25" class="node">
<title>HttpClientService</title>
<ellipse fill="#fdb462" stroke="#000000" cx="4245" cy="-104" rx="80.5316" ry="18"/>
<text text-anchor="middle" x="4245" y="-99.8" font-family="Times,serif" font-size="14.00" fill="#000000">HttpClientService</text>
</g>
<!-- HttpClientService&#45;&gt;AppModule -->
<g id="edge24" class="edge">
<title>HttpClientService&#45;&gt;AppModule</title>
<path fill="none" stroke="#000000" d="M4245,-122.2458C4245,-136.1772 4245,-153 4245,-153 4245,-153 4379.258,-153 4379.258,-153"/>
<polygon fill="#000000" stroke="#000000" points="4379.258,-156.5001 4389.258,-153 4379.2579,-149.5001 4379.258,-156.5001"/>
</g>
<!-- IndicatorService -->
<g id="node26" class="node">
<title>IndicatorService</title>
<ellipse fill="#fdb462" stroke="#000000" cx="4071" cy="-104" rx="74.6956" ry="18"/>
<text text-anchor="middle" x="4071" y="-99.8" font-family="Times,serif" font-size="14.00" fill="#000000">IndicatorService</text>
</g>
<!-- IndicatorService&#45;&gt;AppModule -->
<g id="edge25" class="edge">
<title>IndicatorService&#45;&gt;AppModule</title>
<path fill="none" stroke="#000000" d="M4071,-122.1243C4071,-136.7832 4071,-155 4071,-155 4071,-155 4378.9989,-155 4378.9989,-155"/>
<polygon fill="#000000" stroke="#000000" points="4378.9989,-158.5001 4388.9989,-155 4378.9988,-151.5001 4378.9989,-158.5001"/>
</g>
<!-- LocalInstanceService -->
<g id="node27" class="node">
<title>LocalInstanceService</title>
<ellipse fill="#fdb462" stroke="#000000" cx="3884" cy="-104" rx="94.2963" ry="18"/>
<text text-anchor="middle" x="3884" y="-99.8" font-family="Times,serif" font-size="14.00" fill="#000000">LocalInstanceService</text>
</g>
<!-- LocalInstanceService&#45;&gt;AppModule -->
<g id="edge26" class="edge">
<title>LocalInstanceService&#45;&gt;AppModule</title>
<path fill="none" stroke="#000000" d="M3884,-122.1871C3884,-137.1824 3884,-156 3884,-156 3884,-156 4378.9861,-156 4378.9861,-156"/>
<polygon fill="#000000" stroke="#000000" points="4378.9861,-159.5001 4388.9861,-156 4378.9861,-152.5001 4378.9861,-159.5001"/>
</g>
<!-- LocalStorageService -->
<g id="node28" class="node">
<title>LocalStorageService</title>
<ellipse fill="#fdb462" stroke="#000000" cx="3680" cy="-104" rx="91.4481" ry="18"/>
<text text-anchor="middle" x="3680" y="-99.8" font-family="Times,serif" font-size="14.00" fill="#000000">LocalStorageService</text>
</g>
<!-- LocalStorageService&#45;&gt;AppModule -->
<g id="edge27" class="edge">
<title>LocalStorageService&#45;&gt;AppModule</title>
<path fill="none" stroke="#000000" d="M3680,-122.2819C3680,-137.9478 3680,-158 3680,-158 3680,-158 4379.2839,-158 4379.2839,-158"/>
<polygon fill="#000000" stroke="#000000" points="4379.2839,-161.5001 4389.2839,-158 4379.2838,-154.5001 4379.2839,-161.5001"/>
</g>
<!-- NetworkService -->
<g id="node29" class="node">
<title>NetworkService</title>
<ellipse fill="#fdb462" stroke="#000000" cx="3497" cy="-104" rx="73.5541" ry="18"/>
<text text-anchor="middle" x="3497" y="-99.8" font-family="Times,serif" font-size="14.00" fill="#000000">NetworkService</text>
</g>
<!-- NetworkService&#45;&gt;AppModule -->
<g id="edge28" class="edge">
<title>NetworkService&#45;&gt;AppModule</title>
<path fill="none" stroke="#000000" d="M3497,-122.027C3497,-138.3976 3497,-160 3497,-160 3497,-160 4379.0535,-160 4379.0535,-160"/>
<polygon fill="#000000" stroke="#000000" points="4379.0535,-163.5001 4389.0535,-160 4379.0534,-156.5001 4379.0535,-163.5001"/>
</g>
<!-- OrganisationUnitService -->
<g id="node30" class="node">
<title>OrganisationUnitService</title>
<ellipse fill="#fdb462" stroke="#000000" cx="3298" cy="-104" rx="107.0782" ry="18"/>
<text text-anchor="middle" x="3298" y="-99.8" font-family="Times,serif" font-size="14.00" fill="#000000">OrganisationUnitService</text>
</g>
<!-- OrganisationUnitService&#45;&gt;AppModule -->
<g id="edge29" class="edge">
<title>OrganisationUnitService&#45;&gt;AppModule</title>
<path fill="none" stroke="#000000" d="M3298,-122.0352C3298,-138.7344 3298,-161 3298,-161 3298,-161 4379.3322,-161 4379.3322,-161"/>
<polygon fill="#000000" stroke="#000000" points="4379.3323,-164.5001 4389.3322,-161 4379.3322,-157.5001 4379.3323,-164.5001"/>
</g>
<!-- PeriodSelectionService -->
<g id="node31" class="node">
<title>PeriodSelectionService</title>
<ellipse fill="#fdb462" stroke="#000000" cx="3072" cy="-104" rx="101.2776" ry="18"/>
<text text-anchor="middle" x="3072" y="-99.8" font-family="Times,serif" font-size="14.00" fill="#000000">PeriodSelectionService</text>
</g>
<!-- PeriodSelectionService&#45;&gt;AppModule -->
<g id="edge30" class="edge">
<title>PeriodSelectionService&#45;&gt;AppModule</title>
<path fill="none" stroke="#000000" d="M3072,-122.0225C3072,-139.3734 3072,-163 3072,-163 3072,-163 4379.2125,-163 4379.2125,-163"/>
<polygon fill="#000000" stroke="#000000" points="4379.2125,-166.5001 4389.2125,-163 4379.2124,-159.5001 4379.2125,-166.5001"/>
</g>
<!-- ProgramRuleEngineService -->
<g id="node32" class="node">
<title>ProgramRuleEngineService</title>
<ellipse fill="#fdb462" stroke="#000000" cx="2834" cy="-104" rx="118.68" ry="18"/>
<text text-anchor="middle" x="2834" y="-99.8" font-family="Times,serif" font-size="14.00" fill="#000000">ProgramRuleEngineService</text>
</g>
<!-- ProgramRuleEngineService&#45;&gt;AppModule -->
<g id="edge31" class="edge">
<title>ProgramRuleEngineService&#45;&gt;AppModule</title>
<path fill="none" stroke="#000000" d="M2834,-122.302C2834,-140.2699 2834,-165 2834,-165 2834,-165 4379.105,-165 4379.105,-165"/>
<polygon fill="#000000" stroke="#000000" points="4379.105,-168.5001 4389.105,-165 4379.105,-161.5001 4379.105,-168.5001"/>
</g>
<!-- ProgramSelectionService -->
<g id="node33" class="node">
<title>ProgramSelectionService</title>
<ellipse fill="#fdb462" stroke="#000000" cx="2588" cy="-104" rx="109.3642" ry="18"/>
<text text-anchor="middle" x="2588" y="-99.8" font-family="Times,serif" font-size="14.00" fill="#000000">ProgramSelectionService</text>
</g>
<!-- ProgramSelectionService&#45;&gt;AppModule -->
<g id="edge32" class="edge">
<title>ProgramSelectionService&#45;&gt;AppModule</title>
<path fill="none" stroke="#000000" d="M2588,-122.2667C2588,-140.5552 2588,-166 2588,-166 2588,-166 4379.0436,-166 4379.0436,-166"/>
<polygon fill="#000000" stroke="#000000" points="4379.0436,-169.5001 4389.0436,-166 4379.0436,-162.5001 4379.0436,-169.5001"/>
</g>
<!-- ProgramService -->
<g id="node34" class="node">
<title>ProgramService</title>
<ellipse fill="#fdb462" stroke="#000000" cx="2388" cy="-104" rx="73.492" ry="18"/>
<text text-anchor="middle" x="2388" y="-99.8" font-family="Times,serif" font-size="14.00" fill="#000000">ProgramService</text>
</g>
<!-- ProgramService&#45;&gt;AppModule -->
<g id="edge33" class="edge">
<title>ProgramService&#45;&gt;AppModule</title>
<path fill="none" stroke="#000000" d="M2388,-122.1686C2388,-141.0898 2388,-168 2388,-168 2388,-168 4379.2645,-168 4379.2645,-168"/>
<polygon fill="#000000" stroke="#000000" points="4379.2646,-171.5001 4389.2645,-168 4379.2645,-164.5001 4379.2646,-171.5001"/>
</g>
<!-- ProgramStageSectionService -->
<g id="node35" class="node">
<title>ProgramStageSectionService</title>
<ellipse fill="#fdb462" stroke="#000000" cx="2173" cy="-104" rx="123.8311" ry="18"/>
<text text-anchor="middle" x="2173" y="-99.8" font-family="Times,serif" font-size="14.00" fill="#000000">ProgramStageSectionService</text>
</g>
<!-- ProgramStageSectionService&#45;&gt;AppModule -->
<g id="edge34" class="edge">
<title>ProgramStageSectionService&#45;&gt;AppModule</title>
<path fill="none" stroke="#000000" d="M2173,-122.1061C2173,-141.3391 2173,-169 2173,-169 2173,-169 4378.9006,-169 4378.9006,-169"/>
<polygon fill="#000000" stroke="#000000" points="4378.9006,-172.5001 4388.9006,-169 4378.9006,-165.5001 4378.9006,-172.5001"/>
</g>
<!-- SectionService -->
<g id="node36" class="node">
<title>SectionService</title>
<ellipse fill="#fdb462" stroke="#000000" cx="1962" cy="-104" rx="68.9158" ry="18"/>
<text text-anchor="middle" x="1962" y="-99.8" font-family="Times,serif" font-size="14.00" fill="#000000">SectionService</text>
</g>
<!-- SectionService&#45;&gt;AppModule -->
<g id="edge35" class="edge">
<title>SectionService&#45;&gt;AppModule</title>
<path fill="none" stroke="#000000" d="M1962,-122.308C1962,-142.1455 1962,-171 1962,-171 1962,-171 4379.1818,-171 4379.1818,-171"/>
<polygon fill="#000000" stroke="#000000" points="4379.1819,-174.5001 4389.1818,-171 4379.1818,-167.5001 4379.1819,-174.5001"/>
</g>
<!-- SettingService -->
<g id="node37" class="node">
<title>SettingService</title>
<ellipse fill="#fdb462" stroke="#000000" cx="1808" cy="-104" rx="67.21" ry="18"/>
<text text-anchor="middle" x="1808" y="-99.8" font-family="Times,serif" font-size="14.00" fill="#000000">SettingService</text>
</g>
<!-- SettingService&#45;&gt;AppModule -->
<g id="edge36" class="edge">
<title>SettingService&#45;&gt;AppModule</title>
<path fill="none" stroke="#000000" d="M1808,-122.1289C1808,-142.5724 1808,-173 1808,-173 1808,-173 4379.2693,-173 4379.2693,-173"/>
<polygon fill="#000000" stroke="#000000" points="4379.2694,-176.5001 4389.2693,-173 4379.2693,-169.5001 4379.2694,-176.5001"/>
</g>
<!-- SmsCommandService -->
<g id="node38" class="node">
<title>SmsCommandService</title>
<ellipse fill="#fdb462" stroke="#000000" cx="1626" cy="-104" rx="96.7293" ry="18"/>
<text text-anchor="middle" x="1626" y="-99.8" font-family="Times,serif" font-size="14.00" fill="#000000">SmsCommandService</text>
</g>
<!-- SmsCommandService&#45;&gt;AppModule -->
<g id="edge37" class="edge">
<title>SmsCommandService&#45;&gt;AppModule</title>
<path fill="none" stroke="#000000" d="M1626,-122.0267C1626,-142.7672 1626,-174 1626,-174 1626,-174 4379.1714,-174 4379.1714,-174"/>
<polygon fill="#000000" stroke="#000000" points="4379.1714,-177.5001 4389.1714,-174 4379.1713,-170.5001 4379.1714,-177.5001"/>
</g>
<!-- StandardResportService -->
<g id="node39" class="node">
<title>StandardResportService</title>
<ellipse fill="#fdb462" stroke="#000000" cx="1407" cy="-104" rx="104.2111" ry="18"/>
<text text-anchor="middle" x="1407" y="-99.8" font-family="Times,serif" font-size="14.00" fill="#000000">StandardResportService</text>
</g>
<!-- StandardResportService&#45;&gt;AppModule -->
<g id="edge38" class="edge">
<title>StandardResportService&#45;&gt;AppModule</title>
<path fill="none" stroke="#000000" d="M1407,-122.1686C1407,-143.498 1407,-176 1407,-176 1407,-176 4379.1163,-176 4379.1163,-176"/>
<polygon fill="#000000" stroke="#000000" points="4379.1163,-179.5001 4389.1163,-176 4379.1163,-172.5001 4379.1163,-179.5001"/>
</g>
<!-- SystemInformationService -->
<g id="node40" class="node">
<title>SystemInformationService</title>
<ellipse fill="#fdb462" stroke="#000000" cx="1170" cy="-104" rx="114.6025" ry="18"/>
<text text-anchor="middle" x="1170" y="-99.8" font-family="Times,serif" font-size="14.00" fill="#000000">SystemInformationService</text>
</g>
<!-- SystemInformationService&#45;&gt;AppModule -->
<g id="edge39" class="edge">
<title>SystemInformationService&#45;&gt;AppModule</title>
<path fill="none" stroke="#000000" d="M1170,-122.2921C1170,-144.2057 1170,-178 1170,-178 1170,-178 4379.1746,-178 4379.1746,-178"/>
<polygon fill="#000000" stroke="#000000" points="4379.1746,-181.5001 4389.1746,-178 4379.1746,-174.5001 4379.1746,-181.5001"/>
</g>
<!-- SystemSettingService -->
<g id="node41" class="node">
<title>SystemSettingService</title>
<ellipse fill="#fdb462" stroke="#000000" cx="942" cy="-104" rx="95.5799" ry="18"/>
<text text-anchor="middle" x="942" y="-99.8" font-family="Times,serif" font-size="14.00" fill="#000000">SystemSettingService</text>
</g>
<!-- SystemSettingService&#45;&gt;AppModule -->
<g id="edge40" class="edge">
<title>SystemSettingService&#45;&gt;AppModule</title>
<path fill="none" stroke="#000000" d="M942,-122.1554C942,-144.3519 942,-179 942,-179 942,-179 4379.0776,-179 4379.0776,-179"/>
<polygon fill="#000000" stroke="#000000" points="4379.0776,-182.5001 4389.0776,-179 4379.0775,-175.5001 4379.0776,-182.5001"/>
</g>
<!-- ToasterMessagesService -->
<g id="node42" class="node">
<title>ToasterMessagesService</title>
<ellipse fill="#fdb462" stroke="#000000" cx="722" cy="-104" rx="106.4734" ry="18"/>
<text text-anchor="middle" x="722" y="-99.8" font-family="Times,serif" font-size="14.00" fill="#000000">ToasterMessagesService</text>
</g>
<!-- ToasterMessagesService&#45;&gt;AppModule -->
<g id="edge41" class="edge">
<title>ToasterMessagesService&#45;&gt;AppModule</title>
<path fill="none" stroke="#000000" d="M722,-122.2479C722,-145.0179 722,-181 722,-181 722,-181 4379.0273,-181 4379.0273,-181"/>
<polygon fill="#000000" stroke="#000000" points="4379.0273,-184.5001 4389.0273,-181 4379.0272,-177.5001 4379.0273,-184.5001"/>
</g>
<!-- UserAuthorizationService -->
<g id="node43" class="node">
<title>UserAuthorizationService</title>
<ellipse fill="#fdb462" stroke="#000000" cx="486" cy="-104" rx="111.7141" ry="18"/>
<text text-anchor="middle" x="486" y="-99.8" font-family="Times,serif" font-size="14.00" fill="#000000">UserAuthorizationService</text>
</g>
<!-- UserAuthorizationService&#45;&gt;AppModule -->
<g id="edge42" class="edge">
<title>UserAuthorizationService&#45;&gt;AppModule</title>
<path fill="none" stroke="#000000" d="M486,-122.3228C486,-145.6602 486,-183 486,-183 486,-183 4379.0357,-183 4379.0357,-183"/>
<polygon fill="#000000" stroke="#000000" points="4379.0358,-186.5001 4389.0357,-183 4379.0357,-179.5001 4379.0358,-186.5001"/>
</g>
<!-- UserService -->
<g id="node44" class="node">
<title>UserService</title>
<ellipse fill="#fdb462" stroke="#000000" cx="298" cy="-104" rx="58.4415" ry="18"/>
<text text-anchor="middle" x="298" y="-99.8" font-family="Times,serif" font-size="14.00" fill="#000000">UserService</text>
</g>
<!-- UserService&#45;&gt;AppModule -->
<g id="edge43" class="edge">
<title>UserService&#45;&gt;AppModule</title>
<path fill="none" stroke="#000000" d="M298,-122.1532C298,-145.7566 298,-184 298,-184 298,-184 4379.0865,-184 4379.0865,-184"/>
<polygon fill="#000000" stroke="#000000" points="4379.0866,-187.5001 4389.0865,-184 4379.0865,-180.5001 4379.0866,-187.5001"/>
</g>
<!-- ValidationRuleService -->
<g id="node45" class="node">
<title>ValidationRuleService</title>
<ellipse fill="#fdb462" stroke="#000000" cx="123" cy="-104" rx="98.9916" ry="18"/>
<text text-anchor="middle" x="123" y="-99.8" font-family="Times,serif" font-size="14.00" fill="#000000">ValidationRuleService</text>
</g>
<!-- ValidationRuleService&#45;&gt;AppModule -->
<g id="edge44" class="edge">
<title>ValidationRuleService&#45;&gt;AppModule</title>
<path fill="none" stroke="#000000" d="M123,-122.1985C123,-146.3563 123,-186 123,-186 123,-186 4379.0557,-186 4379.0557,-186"/>
<polygon fill="#000000" stroke="#000000" points="4379.0557,-189.5001 4389.0557,-186 4379.0556,-182.5001 4379.0557,-189.5001"/>
</g>
</g>
</svg>
